# xmcd CD database file
#
# Track frame offsets:
#	150
#	46490
#	109573
#	193924
#	230795
#	291376
#
# Disc length: 4798 seconds
#
# Revision: 0
# Processed by: cddbd v1.5.2PL0 Copyright (c) Steve Scherf et al.
# Submitted via: CDex 1.51
#
DISCID=5a12bc06
DTITLE=Jerry Marchand - Merlyn
DYEAR=1900
DGENRE=New Age
TTITLE0=Merlyn
TTITLE1=Lovesong to Nimaway
TTITLE2=Alban Heffyn(Midsummer Day)
TTITLE3=Alban Arthan(Midwinter Day)
TTITLE4=Alban Eiler(Spring Equinox)
TTITLE5=Alban Elved(Fall Equinox)
EXTD=
EXTT0=
EXTT1=
EXTT2=
EXTT3=
EXTT4=
EXTT5=
PLAYORDER=
